<?xml version="1.0" encoding="UTF-8" standalone="no"?>
<!-- Created with Inkscape (http://www.inkscape.org/) -->

<svg
   xmlns:dc="http://purl.org/dc/elements/1.1/"
   xmlns:cc="http://creativecommons.org/ns#"
   xmlns:rdf="http://www.w3.org/1999/02/22-rdf-syntax-ns#"
   xmlns:svg="http://www.w3.org/2000/svg"
   xmlns="http://www.w3.org/2000/svg"
   xmlns:xlink="http://www.w3.org/1999/xlink"
   xmlns:sodipodi="http://sodipodi.sourceforge.net/DTD/sodipodi-0.dtd"
   xmlns:inkscape="http://www.inkscape.org/namespaces/inkscape"
   sodipodi:docname="terrain.svg"
   inkscape:version="0.91 r13725"
   version="1.1"
   id="svg2"
   viewBox="0 0 1280 720.00001"
   height="720"
   width="1280">
  <sodipodi:namedview
     inkscape:window-maximized="1"
     inkscape:window-y="24"
     inkscape:window-x="57"
     inkscape:window-height="1056"
     inkscape:window-width="1863"
     units="px"
     showgrid="false"
     inkscape:current-layer="svg2"
     inkscape:document-units="px"
     inkscape:cy="-1123.5638"
     inkscape:cx="9197.5488"
     inkscape:zoom="0.175"
     inkscape:pageshadow="2"
     inkscape:pageopacity="0.0"
     borderopacity="1.0"
     bordercolor="#666666"
     pagecolor="#ffffff"
     id="base"
     inkscape:snap-bbox="true"
     inkscape:bbox-paths="true"
     inkscape:bbox-nodes="true"
     inkscape:snap-bbox-edge-midpoints="true"
     inkscape:snap-bbox-midpoints="true"
     inkscape:snap-global="false" />
  <defs
     id="defs4">
    <linearGradient
       inkscape:collect="always"
       id="linearGradient4197">
      <stop
         style="stop-color:#91eef5;stop-opacity:1"
         offset="0"
         id="stop4199" />
      <stop
         style="stop-color:#43c1d8;stop-opacity:1"
         offset="1"
         id="stop4201" />
    </linearGradient>
    <radialGradient
       inkscape:collect="always"
       xlink:href="#linearGradient4197"
       id="radialGradient4203"
       cx="-58.422489"
       cy="-1919.5504"
       fx="-58.422489"
       fy="-1919.5504"
       r="320"
       gradientTransform="matrix(0.88898161,-0.75756802,0.8769674,1.0290929,1826.2335,360.11094)"
       gradientUnits="userSpaceOnUse" />
  </defs>
  <metadata
     id="metadata7">
    <rdf:RDF>
      <cc:Work
         rdf:about="">
        <dc:format>image/svg+xml</dc:format>
        <dc:type
           rdf:resource="http://purl.org/dc/dcmitype/StillImage" />
        <dc:title />
      </cc:Work>
    </rdf:RDF>
  </metadata>
  <g
     inkscape:label="Layer 1"
     inkscape:groupmode="layer"
     id="layer1"
     transform="translate(0,-332.36216)" />
  <path
     style="fill:none;fill-rule:evenodd;stroke:#000000;stroke-width:2.00671625px;stroke-linecap:butt;stroke-linejoin:miter;stroke-opacity:1"
     d="M -10.837105,399.91531 C -10.837105,399.91531 360.95089,618.41855 633.74796,640.65452 933.27973,665.06975 1194.6484,497.3518 1498.1559,507.62844 1727.0472,515.37863 1898.3125,665.99098 2109.7652,650.73232 2479.5945,624.04507 2737.3742,278.22805 3107.1744,251.27988 3425.2674,283.59165 3926.4207,433.05255 4489.1112,512.4571 4597.6107,527.76814 4722.879,469.1338 4833.3691,482.03476 4868.8117,486.17313 4939.2658,567.09253 4974.475,571.28218 5639.6416,650.43241 6256.8855,671.72797 6588.8994,674.43736 6943.2645,673.42027 7277.3722,403.89083 7743.1187,388.41574 8023.5431,379.09821 8167.268,733.32913 8445.1661,682.98562 9142.1521,556.72082 9382.633,653.43022 9660.1193,642.80088 9803.5716,637.30582 10351.968,200.05637 10670.53,200.2844 10999.895,200.52023 11134.798,-19.470908 11345.368,0.88878878 11664.594,31.754353 12026.765,223.6594 12296.609,161.811 12838.032,37.716588 12837.788,533.42456 12847.221,532.71357"
     id="path4140"
     inkscape:connector-curvature="0"
     sodipodi:nodetypes="caaacssscssssssc" />
  <path
     style="opacity:1;fill:#cccccc;fill-opacity:0.81308414;stroke:#666666;stroke-width:1;stroke-linecap:round;stroke-linejoin:round;stroke-miterlimit:4;stroke-dasharray:none;stroke-dashoffset:2.5;stroke-opacity:1"
     d="M 64.303133,-374.84559 173.3996,-374.84559 C 190.18834,-374.84559 205.75684,-361.20379 203.70418,-344.54099 L 186.53159,-205.13999 C 184.47892,-188.47719 173.01575,-174.83539 156.22701,-174.83539 L 81.475723,-174.83539 C 64.686993,-174.83539 53.223813,-188.47719 51.171153,-205.13999 L 33.998557,-344.54099 C 31.945895,-361.20379 47.514403,-374.84559 64.303133,-374.84559 Z"
     id="rect4153"
     inkscape:connector-curvature="0"
     sodipodi:nodetypes="sssssssss"
     inkscape:export-filename="/home/yannick/Desktop/phaser3-matter-car-on-curved-terrain/src/assets/img/gas.png"
     inkscape:export-xdpi="90"
     inkscape:export-ydpi="90" />
  <path
     sodipodi:nodetypes="cssscssscssssssc"
     inkscape:connector-curvature="0"
     id="path3335"
     d="M 11617.063,3528.4898 C 11621.249,3524.7808 11611.68,3447.0568 11669.83,3358.5231 11865.52,3060.5827 11575.859,3311.6521 11343.718,3201.6923 11139.351,3104.8886 10961.733,3006.1663 10729.49,2913.6747 10396.606,2781.1024 10101.548,2541.1218 9731.5518,2514.1701 9413.2902,2546.4861 8911.8712,2695.9665 8348.8826,2775.3815 8240.3255,2790.6945 8114.9908,2732.0525 8004.4422,2744.9552 7968.9808,2749.094 7713.9634,2870.0174 7678.7355,2874.2076 7013.2163,2953.3682 6587.2685,2808.9798 6247.9814,2937.3829 5829.5541,3056.3456 5559.1438,2666.801 5093.1504,2651.3239 4812.5774,2642.0051 4668.7763,2996.2823 4390.7309,2945.9322 3693.3755,2819.6509 3452.7672,2916.373 3175.1339,2905.7423 3031.6055,2900.2465 2546.7924,2588.6333 2228.0616,2588.8613 1898.5226,2589.0972 1699.6737,2243.384 1488.9922,2263.7464 1169.5965,2294.616 807.23392,2486.5461 537.2465,2424.6896 -4.4640133,2300.579 -4.2193389,2796.3516 -13.657313,2795.6406"
     style="fill:none;fill-rule:evenodd;stroke:#000000;stroke-width:2.00737906px;stroke-linecap:butt;stroke-linejoin:miter;stroke-opacity:1" />
  <rect
     style="opacity:1;fill:#cccccc;fill-opacity:0.81308414;stroke:#666666;stroke-width:0.76492667;stroke-linecap:round;stroke-linejoin:round;stroke-miterlimit:4;stroke-dasharray:none;stroke-dashoffset:2.5;stroke-opacity:1"
     id="rect3338"
     width="188.12344"
     height="60.377132"
     x="308.8869"
     y="-286.81479"
     ry="22.089211"
     inkscape:export-filename="/home/yannick/Desktop/phaser3-matter-car-on-curved-terrain/src/assets/img/restart-btn.png"
     inkscape:export-xdpi="90"
     inkscape:export-ydpi="90" />
  <text
     xml:space="preserve"
     style="font-style:normal;font-weight:normal;font-size:30px;line-height:125%;font-family:sans-serif;letter-spacing:0px;word-spacing:0px;fill:#000000;fill-opacity:1;stroke:none;stroke-width:1px;stroke-linecap:butt;stroke-linejoin:miter;stroke-opacity:1"
     x="327.28943"
     y="-245.70583"
     id="text3340"
     sodipodi:linespacing="125%"
     inkscape:export-filename="/home/yannick/Desktop/phaser3-matter-car-on-curved-terrain/src/assets/img/restart-btn.png"
     inkscape:export-xdpi="90"
     inkscape:export-ydpi="90"><tspan
       sodipodi:role="line"
       id="tspan3342"
       x="327.28943"
       y="-245.70583"
       style="-inkscape-font-specification:'sans-serif Bold';font-family:sans-serif;font-weight:bold;font-style:normal;font-stretch:normal;font-variant:normal">RESTART</tspan></text>
  <rect
     style="opacity:1;fill:#685339;fill-opacity:1;stroke:none;stroke-width:1;stroke-linecap:round;stroke-linejoin:round;stroke-miterlimit:4;stroke-dasharray:none;stroke-dashoffset:2.5;stroke-opacity:1"
     id="rect3347"
     width="1280"
     height="720"
     x="-107.0168"
     y="-1445.7142"
     ry="0"
     inkscape:export-filename="/home/yannick/Desktop/phaser3-matter-car-on-curved-terrain/src/assets/img/wholes.png"
     inkscape:export-xdpi="90"
     inkscape:export-ydpi="90" />
  <g
     id="g4161"
     transform="translate(205.85273,-1265.8054)"
     inkscape:export-filename="/home/yannick/Desktop/phaser3-matter-car-on-curved-terrain/src/assets/img/wholes.png"
     inkscape:export-xdpi="90"
     inkscape:export-ydpi="90">
    <circle
       r="50"
       cy="433.79077"
       cx="-209.28571"
       id="circle4153"
       style="opacity:1;fill:#6e563a;fill-opacity:1;stroke:none;stroke-width:1;stroke-linecap:round;stroke-linejoin:round;stroke-miterlimit:4;stroke-dasharray:none;stroke-dashoffset:2.5;stroke-opacity:1" />
    <path
       id="circle4158"
       d="M -209.28516,383.79102 A 50,50 0 0 0 -244.22852,398.03906 50,50 0 0 1 -224.4375,393.89258 50,50 0 0 1 -174.4375,443.89258 50,50 0 0 1 -189.49609,479.64453 50,50 0 0 0 -159.28516,433.79102 50,50 0 0 0 -209.28516,383.79102 Z"
       style="opacity:1;fill:#57462a;fill-opacity:1;stroke:none;stroke-width:1;stroke-linecap:round;stroke-linejoin:round;stroke-miterlimit:4;stroke-dasharray:none;stroke-dashoffset:2.5;stroke-opacity:1"
       inkscape:connector-curvature="0" />
  </g>
  <g
     transform="matrix(0.84285714,0,0,0.84285714,385.10783,-1316.924)"
     id="g4165"
     inkscape:export-filename="/home/yannick/Desktop/phaser3-matter-car-on-curved-terrain/src/assets/img/wholes.png"
     inkscape:export-xdpi="90"
     inkscape:export-ydpi="90">
    <circle
       style="opacity:1;fill:#6e563a;fill-opacity:1;stroke:none;stroke-width:1;stroke-linecap:round;stroke-linejoin:round;stroke-miterlimit:4;stroke-dasharray:none;stroke-dashoffset:2.5;stroke-opacity:1"
       id="circle4167"
       cx="-209.28571"
       cy="433.79077"
       r="50" />
    <path
       inkscape:connector-curvature="0"
       style="opacity:1;fill:#57462a;fill-opacity:1;stroke:none;stroke-width:1;stroke-linecap:round;stroke-linejoin:round;stroke-miterlimit:4;stroke-dasharray:none;stroke-dashoffset:2.5;stroke-opacity:1"
       d="M -209.28516,383.79102 A 50,50 0 0 0 -244.22852,398.03906 50,50 0 0 1 -224.4375,393.89258 50,50 0 0 1 -174.4375,443.89258 50,50 0 0 1 -189.49609,479.64453 50,50 0 0 0 -159.28516,433.79102 50,50 0 0 0 -209.28516,383.79102 Z"
       id="path4169" />
  </g>
  <g
     id="g4171"
     transform="translate(278.70993,-1731.5197)"
     inkscape:export-filename="/home/yannick/Desktop/phaser3-matter-car-on-curved-terrain/src/assets/img/wholes.png"
     inkscape:export-xdpi="90"
     inkscape:export-ydpi="90">
    <circle
       r="50"
       cy="433.79077"
       cx="-209.28571"
       id="circle4173"
       style="opacity:1;fill:#6e563a;fill-opacity:1;stroke:none;stroke-width:1;stroke-linecap:round;stroke-linejoin:round;stroke-miterlimit:4;stroke-dasharray:none;stroke-dashoffset:2.5;stroke-opacity:1" />
    <path
       id="path4175"
       d="M -209.28516,383.79102 A 50,50 0 0 0 -244.22852,398.03906 50,50 0 0 1 -224.4375,393.89258 50,50 0 0 1 -174.4375,443.89258 50,50 0 0 1 -189.49609,479.64453 50,50 0 0 0 -159.28516,433.79102 50,50 0 0 0 -209.28516,383.79102 Z"
       style="opacity:1;fill:#57462a;fill-opacity:1;stroke:none;stroke-width:1;stroke-linecap:round;stroke-linejoin:round;stroke-miterlimit:4;stroke-dasharray:none;stroke-dashoffset:2.5;stroke-opacity:1"
       inkscape:connector-curvature="0" />
  </g>
  <g
     transform="translate(787.28133,-1758.6625)"
     id="g4177"
     inkscape:export-filename="/home/yannick/Desktop/phaser3-matter-car-on-curved-terrain/src/assets/img/wholes.png"
     inkscape:export-xdpi="90"
     inkscape:export-ydpi="90">
    <circle
       style="opacity:1;fill:#6e563a;fill-opacity:1;stroke:none;stroke-width:1;stroke-linecap:round;stroke-linejoin:round;stroke-miterlimit:4;stroke-dasharray:none;stroke-dashoffset:2.5;stroke-opacity:1"
       id="circle4179"
       cx="-209.28571"
       cy="433.79077"
       r="50" />
    <path
       inkscape:connector-curvature="0"
       style="opacity:1;fill:#57462a;fill-opacity:1;stroke:none;stroke-width:1;stroke-linecap:round;stroke-linejoin:round;stroke-miterlimit:4;stroke-dasharray:none;stroke-dashoffset:2.5;stroke-opacity:1"
       d="M -209.28516,383.79102 A 50,50 0 0 0 -244.22852,398.03906 50,50 0 0 1 -224.4375,393.89258 50,50 0 0 1 -174.4375,443.89258 50,50 0 0 1 -189.49609,479.64453 50,50 0 0 0 -159.28516,433.79102 50,50 0 0 0 -209.28516,383.79102 Z"
       id="path4181" />
  </g>
  <g
     id="g4183"
     transform="translate(670.13843,-1437.2339)"
     inkscape:export-filename="/home/yannick/Desktop/phaser3-matter-car-on-curved-terrain/src/assets/img/wholes.png"
     inkscape:export-xdpi="90"
     inkscape:export-ydpi="90">
    <circle
       r="50"
       cy="433.79077"
       cx="-209.28571"
       id="circle4185"
       style="opacity:1;fill:#6e563a;fill-opacity:1;stroke:none;stroke-width:1;stroke-linecap:round;stroke-linejoin:round;stroke-miterlimit:4;stroke-dasharray:none;stroke-dashoffset:2.5;stroke-opacity:1" />
    <path
       id="path4187"
       d="M -209.28516,383.79102 A 50,50 0 0 0 -244.22852,398.03906 50,50 0 0 1 -224.4375,393.89258 50,50 0 0 1 -174.4375,443.89258 50,50 0 0 1 -189.49609,479.64453 50,50 0 0 0 -159.28516,433.79102 50,50 0 0 0 -209.28516,383.79102 Z"
       style="opacity:1;fill:#57462a;fill-opacity:1;stroke:none;stroke-width:1;stroke-linecap:round;stroke-linejoin:round;stroke-miterlimit:4;stroke-dasharray:none;stroke-dashoffset:2.5;stroke-opacity:1"
       inkscape:connector-curvature="0" />
  </g>
  <g
     transform="translate(1072.9956,-1314.3768)"
     id="g4189"
     inkscape:export-filename="/home/yannick/Desktop/phaser3-matter-car-on-curved-terrain/src/assets/img/wholes.png"
     inkscape:export-xdpi="90"
     inkscape:export-ydpi="90">
    <circle
       style="opacity:1;fill:#6e563a;fill-opacity:1;stroke:none;stroke-width:1;stroke-linecap:round;stroke-linejoin:round;stroke-miterlimit:4;stroke-dasharray:none;stroke-dashoffset:2.5;stroke-opacity:1"
       id="circle4191"
       cx="-209.28571"
       cy="433.79077"
       r="50" />
    <path
       inkscape:connector-curvature="0"
       style="opacity:1;fill:#57462a;fill-opacity:1;stroke:none;stroke-width:1;stroke-linecap:round;stroke-linejoin:round;stroke-miterlimit:4;stroke-dasharray:none;stroke-dashoffset:2.5;stroke-opacity:1"
       d="M -209.28516,383.79102 A 50,50 0 0 0 -244.22852,398.03906 50,50 0 0 1 -224.4375,393.89258 50,50 0 0 1 -174.4375,443.89258 50,50 0 0 1 -189.49609,479.64453 50,50 0 0 0 -159.28516,433.79102 50,50 0 0 0 -209.28516,383.79102 Z"
       id="path4193" />
  </g>
  <g
     id="g4195"
     transform="translate(1105.8527,-1531.5197)"
     inkscape:export-filename="/home/yannick/Desktop/phaser3-matter-car-on-curved-terrain/src/assets/img/wholes.png"
     inkscape:export-xdpi="90"
     inkscape:export-ydpi="90">
    <circle
       r="50"
       cy="433.79077"
       cx="-209.28571"
       id="circle4197"
       style="opacity:1;fill:#6e563a;fill-opacity:1;stroke:none;stroke-width:1;stroke-linecap:round;stroke-linejoin:round;stroke-miterlimit:4;stroke-dasharray:none;stroke-dashoffset:2.5;stroke-opacity:1" />
    <path
       id="path4199"
       d="M -209.28516,383.79102 A 50,50 0 0 0 -244.22852,398.03906 50,50 0 0 1 -224.4375,393.89258 50,50 0 0 1 -174.4375,443.89258 50,50 0 0 1 -189.49609,479.64453 50,50 0 0 0 -159.28516,433.79102 50,50 0 0 0 -209.28516,383.79102 Z"
       style="opacity:1;fill:#57462a;fill-opacity:1;stroke:none;stroke-width:1;stroke-linecap:round;stroke-linejoin:round;stroke-miterlimit:4;stroke-dasharray:none;stroke-dashoffset:2.5;stroke-opacity:1"
       inkscape:connector-curvature="0" />
  </g>
  <g
     id="g4201"
     transform="matrix(0.84285714,0,0,0.84285714,252.25073,-1438.3525)"
     inkscape:export-filename="/home/yannick/Desktop/phaser3-matter-car-on-curved-terrain/src/assets/img/wholes.png"
     inkscape:export-xdpi="90"
     inkscape:export-ydpi="90">
    <circle
       r="50"
       cy="433.79077"
       cx="-209.28571"
       id="circle4203"
       style="opacity:1;fill:#6e563a;fill-opacity:1;stroke:none;stroke-width:1;stroke-linecap:round;stroke-linejoin:round;stroke-miterlimit:4;stroke-dasharray:none;stroke-dashoffset:2.5;stroke-opacity:1" />
    <path
       id="path4205"
       d="M -209.28516,383.79102 A 50,50 0 0 0 -244.22852,398.03906 50,50 0 0 1 -224.4375,393.89258 50,50 0 0 1 -174.4375,443.89258 50,50 0 0 1 -189.49609,479.64453 50,50 0 0 0 -159.28516,433.79102 50,50 0 0 0 -209.28516,383.79102 Z"
       style="opacity:1;fill:#57462a;fill-opacity:1;stroke:none;stroke-width:1;stroke-linecap:round;stroke-linejoin:round;stroke-miterlimit:4;stroke-dasharray:none;stroke-dashoffset:2.5;stroke-opacity:1"
       inkscape:connector-curvature="0" />
  </g>
  <g
     transform="matrix(0.84285714,0,0,0.84285714,483.67923,-1561.2097)"
     id="g4207"
     inkscape:export-filename="/home/yannick/Desktop/phaser3-matter-car-on-curved-terrain/src/assets/img/wholes.png"
     inkscape:export-xdpi="90"
     inkscape:export-ydpi="90">
    <circle
       style="opacity:1;fill:#6e563a;fill-opacity:1;stroke:none;stroke-width:1;stroke-linecap:round;stroke-linejoin:round;stroke-miterlimit:4;stroke-dasharray:none;stroke-dashoffset:2.5;stroke-opacity:1"
       id="circle4209"
       cx="-209.28571"
       cy="433.79077"
       r="50" />
    <path
       inkscape:connector-curvature="0"
       style="opacity:1;fill:#57462a;fill-opacity:1;stroke:none;stroke-width:1;stroke-linecap:round;stroke-linejoin:round;stroke-miterlimit:4;stroke-dasharray:none;stroke-dashoffset:2.5;stroke-opacity:1"
       d="M -209.28516,383.79102 A 50,50 0 0 0 -244.22852,398.03906 50,50 0 0 1 -224.4375,393.89258 50,50 0 0 1 -174.4375,443.89258 50,50 0 0 1 -189.49609,479.64453 50,50 0 0 0 -159.28516,433.79102 50,50 0 0 0 -209.28516,383.79102 Z"
       id="path4211" />
  </g>
  <g
     id="g4213"
     transform="matrix(0.84285714,0,0,0.84285714,827.96493,-1511.2097)"
     inkscape:export-filename="/home/yannick/Desktop/phaser3-matter-car-on-curved-terrain/src/assets/img/wholes.png"
     inkscape:export-xdpi="90"
     inkscape:export-ydpi="90">
    <circle
       r="50"
       cy="433.79077"
       cx="-209.28571"
       id="circle4215"
       style="opacity:1;fill:#6e563a;fill-opacity:1;stroke:none;stroke-width:1;stroke-linecap:round;stroke-linejoin:round;stroke-miterlimit:4;stroke-dasharray:none;stroke-dashoffset:2.5;stroke-opacity:1" />
    <path
       id="path4217"
       d="M -209.28516,383.79102 A 50,50 0 0 0 -244.22852,398.03906 50,50 0 0 1 -224.4375,393.89258 50,50 0 0 1 -174.4375,443.89258 50,50 0 0 1 -189.49609,479.64453 50,50 0 0 0 -159.28516,433.79102 50,50 0 0 0 -209.28516,383.79102 Z"
       style="opacity:1;fill:#57462a;fill-opacity:1;stroke:none;stroke-width:1;stroke-linecap:round;stroke-linejoin:round;stroke-miterlimit:4;stroke-dasharray:none;stroke-dashoffset:2.5;stroke-opacity:1"
       inkscape:connector-curvature="0" />
  </g>
  <g
     transform="matrix(0.84285714,0,0,0.84285714,1152.2507,-1725.4954)"
     id="g4219"
     inkscape:export-filename="/home/yannick/Desktop/phaser3-matter-car-on-curved-terrain/src/assets/img/wholes.png"
     inkscape:export-xdpi="90"
     inkscape:export-ydpi="90">
    <circle
       style="opacity:1;fill:#6e563a;fill-opacity:1;stroke:none;stroke-width:1;stroke-linecap:round;stroke-linejoin:round;stroke-miterlimit:4;stroke-dasharray:none;stroke-dashoffset:2.5;stroke-opacity:1"
       id="circle4221"
       cx="-209.28571"
       cy="433.79077"
       r="50" />
    <path
       inkscape:connector-curvature="0"
       style="opacity:1;fill:#57462a;fill-opacity:1;stroke:none;stroke-width:1;stroke-linecap:round;stroke-linejoin:round;stroke-miterlimit:4;stroke-dasharray:none;stroke-dashoffset:2.5;stroke-opacity:1"
       d="M -209.28516,383.79102 A 50,50 0 0 0 -244.22852,398.03906 50,50 0 0 1 -224.4375,393.89258 50,50 0 0 1 -174.4375,443.89258 50,50 0 0 1 -189.49609,479.64453 50,50 0 0 0 -159.28516,433.79102 50,50 0 0 0 -209.28516,383.79102 Z"
       id="path4223" />
  </g>
  <g
     id="g4225"
     transform="matrix(0.70000078,0,0,0.70000078,793.78153,-1163.5257)"
     inkscape:export-filename="/home/yannick/Desktop/phaser3-matter-car-on-curved-terrain/src/assets/img/wholes.png"
     inkscape:export-xdpi="90"
     inkscape:export-ydpi="90">
    <circle
       r="50"
       cy="433.79077"
       cx="-209.28571"
       id="circle4227"
       style="opacity:1;fill:#6e563a;fill-opacity:1;stroke:none;stroke-width:1;stroke-linecap:round;stroke-linejoin:round;stroke-miterlimit:4;stroke-dasharray:none;stroke-dashoffset:2.5;stroke-opacity:1" />
    <path
       id="path4229"
       d="M -209.28516,383.79102 A 50,50 0 0 0 -244.22852,398.03906 50,50 0 0 1 -224.4375,393.89258 50,50 0 0 1 -174.4375,443.89258 50,50 0 0 1 -189.49609,479.64453 50,50 0 0 0 -159.28516,433.79102 50,50 0 0 0 -209.28516,383.79102 Z"
       style="opacity:1;fill:#57462a;fill-opacity:1;stroke:none;stroke-width:1;stroke-linecap:round;stroke-linejoin:round;stroke-miterlimit:4;stroke-dasharray:none;stroke-dashoffset:2.5;stroke-opacity:1"
       inkscape:connector-curvature="0" />
  </g>
  <g
     transform="matrix(0.70000078,0,0,0.70000078,1210.9244,-1132.0971)"
     id="g4231"
     inkscape:export-filename="/home/yannick/Desktop/phaser3-matter-car-on-curved-terrain/src/assets/img/wholes.png"
     inkscape:export-xdpi="90"
     inkscape:export-ydpi="90">
    <circle
       style="opacity:1;fill:#6e563a;fill-opacity:1;stroke:none;stroke-width:1;stroke-linecap:round;stroke-linejoin:round;stroke-miterlimit:4;stroke-dasharray:none;stroke-dashoffset:2.5;stroke-opacity:1"
       id="circle4233"
       cx="-209.28571"
       cy="433.79077"
       r="50" />
    <path
       inkscape:connector-curvature="0"
       style="opacity:1;fill:#57462a;fill-opacity:1;stroke:none;stroke-width:1;stroke-linecap:round;stroke-linejoin:round;stroke-miterlimit:4;stroke-dasharray:none;stroke-dashoffset:2.5;stroke-opacity:1"
       d="M -209.28516,383.79102 A 50,50 0 0 0 -244.22852,398.03906 50,50 0 0 1 -224.4375,393.89258 50,50 0 0 1 -174.4375,443.89258 50,50 0 0 1 -189.49609,479.64453 50,50 0 0 0 -159.28516,433.79102 50,50 0 0 0 -209.28516,383.79102 Z"
       id="path4235" />
  </g>
  <g
     id="g4237"
     transform="matrix(0.70000078,0,0,0.70000078,1008.0672,-1556.3828)"
     inkscape:export-filename="/home/yannick/Desktop/phaser3-matter-car-on-curved-terrain/src/assets/img/wholes.png"
     inkscape:export-xdpi="90"
     inkscape:export-ydpi="90">
    <circle
       r="50"
       cy="433.79077"
       cx="-209.28571"
       id="circle4239"
       style="opacity:1;fill:#6e563a;fill-opacity:1;stroke:none;stroke-width:1;stroke-linecap:round;stroke-linejoin:round;stroke-miterlimit:4;stroke-dasharray:none;stroke-dashoffset:2.5;stroke-opacity:1" />
    <path
       id="path4241"
       d="M -209.28516,383.79102 A 50,50 0 0 0 -244.22852,398.03906 50,50 0 0 1 -224.4375,393.89258 50,50 0 0 1 -174.4375,443.89258 50,50 0 0 1 -189.49609,479.64453 50,50 0 0 0 -159.28516,433.79102 50,50 0 0 0 -209.28516,383.79102 Z"
       style="opacity:1;fill:#57462a;fill-opacity:1;stroke:none;stroke-width:1;stroke-linecap:round;stroke-linejoin:round;stroke-miterlimit:4;stroke-dasharray:none;stroke-dashoffset:2.5;stroke-opacity:1"
       inkscape:connector-curvature="0" />
  </g>
  <g
     transform="matrix(0.70000078,0,0,0.70000078,1198.0672,-1512.0971)"
     id="g4243"
     inkscape:export-filename="/home/yannick/Desktop/phaser3-matter-car-on-curved-terrain/src/assets/img/wholes.png"
     inkscape:export-xdpi="90"
     inkscape:export-ydpi="90">
    <circle
       style="opacity:1;fill:#6e563a;fill-opacity:1;stroke:none;stroke-width:1;stroke-linecap:round;stroke-linejoin:round;stroke-miterlimit:4;stroke-dasharray:none;stroke-dashoffset:2.5;stroke-opacity:1"
       id="circle4245"
       cx="-209.28571"
       cy="433.79077"
       r="50" />
    <path
       inkscape:connector-curvature="0"
       style="opacity:1;fill:#57462a;fill-opacity:1;stroke:none;stroke-width:1;stroke-linecap:round;stroke-linejoin:round;stroke-miterlimit:4;stroke-dasharray:none;stroke-dashoffset:2.5;stroke-opacity:1"
       d="M -209.28516,383.79102 A 50,50 0 0 0 -244.22852,398.03906 50,50 0 0 1 -224.4375,393.89258 50,50 0 0 1 -174.4375,443.89258 50,50 0 0 1 -189.49609,479.64453 50,50 0 0 0 -159.28516,433.79102 50,50 0 0 0 -209.28516,383.79102 Z"
       id="path4247" />
  </g>
  <g
     id="g4249"
     transform="matrix(0.70000078,0,0,0.70000078,419.49583,-1649.24)"
     inkscape:export-filename="/home/yannick/Desktop/phaser3-matter-car-on-curved-terrain/src/assets/img/wholes.png"
     inkscape:export-xdpi="90"
     inkscape:export-ydpi="90">
    <circle
       r="50"
       cy="433.79077"
       cx="-209.28571"
       id="circle4251"
       style="opacity:1;fill:#6e563a;fill-opacity:1;stroke:none;stroke-width:1;stroke-linecap:round;stroke-linejoin:round;stroke-miterlimit:4;stroke-dasharray:none;stroke-dashoffset:2.5;stroke-opacity:1" />
    <path
       id="path4253"
       d="M -209.28516,383.79102 A 50,50 0 0 0 -244.22852,398.03906 50,50 0 0 1 -224.4375,393.89258 50,50 0 0 1 -174.4375,443.89258 50,50 0 0 1 -189.49609,479.64453 50,50 0 0 0 -159.28516,433.79102 50,50 0 0 0 -209.28516,383.79102 Z"
       style="opacity:1;fill:#57462a;fill-opacity:1;stroke:none;stroke-width:1;stroke-linecap:round;stroke-linejoin:round;stroke-miterlimit:4;stroke-dasharray:none;stroke-dashoffset:2.5;stroke-opacity:1"
       inkscape:connector-curvature="0" />
  </g>
  <g
     transform="matrix(0.70000078,0,0,0.70000078,473.78153,-1173.5257)"
     id="g4255"
     inkscape:export-filename="/home/yannick/Desktop/phaser3-matter-car-on-curved-terrain/src/assets/img/wholes.png"
     inkscape:export-xdpi="90"
     inkscape:export-ydpi="90">
    <circle
       style="opacity:1;fill:#6e563a;fill-opacity:1;stroke:none;stroke-width:1;stroke-linecap:round;stroke-linejoin:round;stroke-miterlimit:4;stroke-dasharray:none;stroke-dashoffset:2.5;stroke-opacity:1"
       id="circle4257"
       cx="-209.28571"
       cy="433.79077"
       r="50" />
    <path
       inkscape:connector-curvature="0"
       style="opacity:1;fill:#57462a;fill-opacity:1;stroke:none;stroke-width:1;stroke-linecap:round;stroke-linejoin:round;stroke-miterlimit:4;stroke-dasharray:none;stroke-dashoffset:2.5;stroke-opacity:1"
       d="M -209.28516,383.79102 A 50,50 0 0 0 -244.22852,398.03906 50,50 0 0 1 -224.4375,393.89258 50,50 0 0 1 -174.4375,443.89258 50,50 0 0 1 -189.49609,479.64453 50,50 0 0 0 -159.28516,433.79102 50,50 0 0 0 -209.28516,383.79102 Z"
       id="path4259" />
  </g>
  <g
     transform="matrix(0.70000078,0,0,0.70000078,109.49583,-1472.0971)"
     id="g4261"
     inkscape:export-filename="/home/yannick/Desktop/phaser3-matter-car-on-curved-terrain/src/assets/img/wholes.png"
     inkscape:export-xdpi="90"
     inkscape:export-ydpi="90">
    <circle
       style="opacity:1;fill:#6e563a;fill-opacity:1;stroke:none;stroke-width:1;stroke-linecap:round;stroke-linejoin:round;stroke-miterlimit:4;stroke-dasharray:none;stroke-dashoffset:2.5;stroke-opacity:1"
       id="circle4263"
       cx="-209.28571"
       cy="433.79077"
       r="50" />
    <path
       inkscape:connector-curvature="0"
       style="opacity:1;fill:#57462a;fill-opacity:1;stroke:none;stroke-width:1;stroke-linecap:round;stroke-linejoin:round;stroke-miterlimit:4;stroke-dasharray:none;stroke-dashoffset:2.5;stroke-opacity:1"
       d="M -209.28516,383.79102 A 50,50 0 0 0 -244.22852,398.03906 50,50 0 0 1 -224.4375,393.89258 50,50 0 0 1 -174.4375,443.89258 50,50 0 0 1 -189.49609,479.64453 50,50 0 0 0 -159.28516,433.79102 50,50 0 0 0 -209.28516,383.79102 Z"
       id="path4265" />
  </g>
  <path
     style="fill:#adea53;fill-opacity:1;fill-rule:evenodd;stroke:#81c919;stroke-width:1px;stroke-linecap:round;stroke-linejoin:round;stroke-opacity:1"
     d="M 580.80661,-253.55578 C 579.58821,-257.50487 571.62971,-260.10458 571.62971,-260.10458 571.62971,-260.10458 578.89661,-260.04584 582.92421,-258.5816 588.63301,-256.5062 576.14741,-272.44066 576.14741,-272.44066 576.14741,-272.44066 586.75131,-267.01177 591.67771,-260.71378 596.60391,-254.41578 593.23061,-275.02973 593.23061,-275.02973 593.23061,-275.02973 600.69178,-262.06387 600.71331,-259.34308 604.76268,-262.74787 619.20841,-262.23675 619.20841,-262.23675 619.20841,-262.23675 602.75058,-256.12645 607.12468,-254.63256 612.92715,-253.13868 616.80821,-246.39782 616.80821,-246.39782 616.80821,-246.39782 603.17424,-251.71037 601.62061,-249.8167 601.31699,-247.47661 603.53711,-238.02145 603.53711,-238.02145 L 594.78361,-250.20524 C 591.43515,-252.09331 590.84588,-251.65951 588.40122,-251.20832 581.91235,-249.18671 576.71231,-241.2197 576.71231,-241.2197 576.71231,-241.2197 574.11871,-246.10385 580.80661,-253.55578 Z"
     id="path4330"
     inkscape:connector-curvature="0"
     sodipodi:nodetypes="ccsczccccccccccc"
     inkscape:export-filename="/home/yannick/Desktop/phaser3-matter-car-on-curved-terrain/src/assets/img/grass.png"
     inkscape:export-xdpi="90"
     inkscape:export-ydpi="90" />
  <rect
     style="opacity:1;fill:url(#radialGradient4203);fill-opacity:1;stroke:none;stroke-width:1;stroke-linecap:round;stroke-linejoin:round;stroke-miterlimit:4;stroke-dasharray:none;stroke-dashoffset:2.5;stroke-opacity:1"
     id="rect4195"
     width="640"
     height="360"
     x="-76.771614"
     y="-1922.9448"
     inkscape:export-xdpi="90"
     inkscape:export-ydpi="90"
     inkscape:export-filename="/home/yannick/Desktop/phaser3-matter-car-on-curved-terrain/src/assets/img/background.png" />
</svg>
