<?xml version="1.0" encoding="UTF-8" standalone="no"?>
<!-- Created with Inkscape (http://www.inkscape.org/) -->

<svg
   xmlns:dc="http://purl.org/dc/elements/1.1/"
   xmlns:cc="http://creativecommons.org/ns#"
   xmlns:rdf="http://www.w3.org/1999/02/22-rdf-syntax-ns#"
   xmlns:svg="http://www.w3.org/2000/svg"
   xmlns="http://www.w3.org/2000/svg"
   xmlns:sodipodi="http://sodipodi.sourceforge.net/DTD/sodipodi-0.dtd"
   xmlns:inkscape="http://www.inkscape.org/namespaces/inkscape"
   sodipodi:docname="terrain.svg"
   inkscape:version="0.91 r13725"
   version="1.1"
   id="svg2"
   viewBox="0 0 1280 720.00001"
   height="720"
   width="1280">
  <sodipodi:namedview
     inkscape:window-maximized="1"
     inkscape:window-y="24"
     inkscape:window-x="57"
     inkscape:window-height="1056"
     inkscape:window-width="1863"
     units="px"
     showgrid="false"
     inkscape:current-layer="svg2"
     inkscape:document-units="px"
     inkscape:cy="-3821.9131"
     inkscape:cx="7160.8416"
     inkscape:zoom="0.0875"
     inkscape:pageshadow="2"
     inkscape:pageopacity="0.0"
     borderopacity="1.0"
     bordercolor="#666666"
     pagecolor="#ffffff"
     id="base"
     inkscape:snap-bbox="true"
     inkscape:bbox-paths="true"
     inkscape:bbox-nodes="true"
     inkscape:snap-bbox-edge-midpoints="true"
     inkscape:snap-bbox-midpoints="true"
     inkscape:snap-global="false" />
  <defs
     id="defs4" />
  <metadata
     id="metadata7">
    <rdf:RDF>
      <cc:Work
         rdf:about="">
        <dc:format>image/svg+xml</dc:format>
        <dc:type
           rdf:resource="http://purl.org/dc/dcmitype/StillImage" />
        <dc:title />
      </cc:Work>
    </rdf:RDF>
  </metadata>
  <g
     inkscape:label="Layer 1"
     inkscape:groupmode="layer"
     id="layer1"
     transform="translate(0,-332.36216)" />
  <path
     style="fill:none;fill-rule:evenodd;stroke:#000000;stroke-width:1.80137658px;stroke-linecap:butt;stroke-linejoin:miter;stroke-opacity:1"
     d="M -10.897628,399.93176 C -10.897628,399.93176 288.60672,618.50006 508.36612,640.74266 749.66242,665.16516 960.21539,497.39726 1204.7144,507.67696 1389.1043,515.42946 1527.0719,666.08666 1697.4136,650.82346 1995.3401,624.12826 2203.0018,278.20826 2500.9048,251.25206 2757.1536,283.57346 3160.8719,433.07886 3614.1631,512.50706 3701.568,527.82266 3802.4814,469.17086 3891.4898,482.07566 3920.0416,486.21526 3976.7979,567.15876 4005.1617,571.34966 4541.0055,650.52346 5038.2438,671.82536 5305.707,674.53556 5591.1758,673.51816 5860.3257,403.90846 6235.521,388.42876 6461.4248,379.10846 6577.2065,733.44486 6801.0752,683.08636 7362.552,556.78396 7556.2782,653.52216 7779.8151,642.88966 7895.3772,637.39296 8337.1538,200.0133 8593.7804,200.2414 8859.1093,200.4773 8967.7842,-19.579351 9137.4147,0.78640883 9394.5767,31.661165 9686.3335,223.62336 9903.7143,161.75654 10339.873,37.625175 10339.676,533.48076 10347.275,532.76956 10362.825,531.31426 10361.694,1521.236 10360.76,1628.3545 10360.551,1652.3241 4.6852435,1672.7116 4.6852435,1672.7116"
     id="path4140"
     inkscape:connector-curvature="0"
     sodipodi:nodetypes="caaacssscssssssssc" />
  <path
     style="opacity:1;fill:#cccccc;fill-opacity:0.81308414;stroke:#666666;stroke-width:1;stroke-linecap:round;stroke-linejoin:round;stroke-miterlimit:4;stroke-dasharray:none;stroke-dashoffset:2.5;stroke-opacity:1"
     d="M 64.303133,-374.84559 173.3996,-374.84559 C 190.18834,-374.84559 205.75684,-361.20379 203.70418,-344.54099 L 186.53159,-205.13999 C 184.47892,-188.47719 173.01575,-174.83539 156.22701,-174.83539 L 81.475723,-174.83539 C 64.686993,-174.83539 53.223813,-188.47719 51.171153,-205.13999 L 33.998557,-344.54099 C 31.945895,-361.20379 47.514403,-374.84559 64.303133,-374.84559 Z"
     id="rect4153"
     inkscape:connector-curvature="0"
     sodipodi:nodetypes="sssssssss"
     inkscape:export-filename="/home/yannick/Desktop/phaser3-matter-car-on-curved-terrain/src/assets/img/gas.png"
     inkscape:export-xdpi="90"
     inkscape:export-ydpi="90" />
  <path
     sodipodi:nodetypes="csaacssscssssssssc"
     inkscape:connector-curvature="0"
     id="path3335"
     d="M 10316.178,3179.9869 C 10316.178,3179.9869 10215.724,3000.459 9998.9436,2907.6403 9781.7034,2814.6245 9421.8726,2751.9814 9128.8491,2770.534 8958.1667,2781.3406 8806.4916,2928.9437 8636.1499,2913.6805 8338.2234,2886.9853 8130.5617,2541.0653 7832.6587,2514.1091 7576.4099,2546.4305 7172.6916,2695.9359 6719.4004,2775.3642 6631.9955,2790.6797 6531.0821,2732.0279 6442.0737,2744.9328 6413.5219,2749.0723 6208.1942,2870.0159 6179.8304,2874.2068 5643.9866,2953.3806 5301.034,2808.9681 5027.8565,2937.3926 4690.9591,3056.3752 4473.2378,2666.7655 4098.0425,2651.2858 3872.1387,2641.9655 3756.357,2996.3019 3532.4883,2945.9434 2971.0115,2819.641 2777.2853,2916.3792 2553.7484,2905.7467 2438.1863,2900.25 2047.8383,2588.5847 1791.2117,2588.8128 1525.8828,2589.0487 1365.7793,2243.2777 1196.1488,2263.6435 938.9868,2294.5183 647.23,2486.4805 429.8492,2424.6136 -6.3098824,2300.4823 -6.1128824,2796.3378 -13.711882,2795.6266 -29.261882,2794.1713 -28.130882,3772.6645 -27.196882,3879.7831 -26.987882,3903.7527 10328.879,3924.1402 10328.879,3924.1402"
     style="fill:none;fill-rule:evenodd;stroke:#000000;stroke-width:1.80137658px;stroke-linecap:butt;stroke-linejoin:miter;stroke-opacity:1" />
  <rect
     style="opacity:1;fill:#cccccc;fill-opacity:0.81308414;stroke:#666666;stroke-width:0.76492667;stroke-linecap:round;stroke-linejoin:round;stroke-miterlimit:4;stroke-dasharray:none;stroke-dashoffset:2.5;stroke-opacity:1"
     id="rect3338"
     width="188.12344"
     height="60.377132"
     x="308.8869"
     y="-286.81479"
     ry="22.089211"
     inkscape:export-filename="/home/yannick/Desktop/phaser3-matter-car-on-curved-terrain/src/assets/img/restart-btn.png"
     inkscape:export-xdpi="90"
     inkscape:export-ydpi="90" />
  <text
     xml:space="preserve"
     style="font-style:normal;font-weight:normal;font-size:30px;line-height:125%;font-family:sans-serif;letter-spacing:0px;word-spacing:0px;fill:#000000;fill-opacity:1;stroke:none;stroke-width:1px;stroke-linecap:butt;stroke-linejoin:miter;stroke-opacity:1"
     x="327.28943"
     y="-245.70583"
     id="text3340"
     sodipodi:linespacing="125%"
     inkscape:export-filename="/home/yannick/Desktop/phaser3-matter-car-on-curved-terrain/src/assets/img/restart-btn.png"
     inkscape:export-xdpi="90"
     inkscape:export-ydpi="90"><tspan
       sodipodi:role="line"
       id="tspan3342"
       x="327.28943"
       y="-245.70583"
       style="-inkscape-font-specification:'sans-serif Bold';font-family:sans-serif;font-weight:bold;font-style:normal;font-stretch:normal;font-variant:normal">RESTART</tspan></text>
  <rect
     style="opacity:1;fill:none;fill-opacity:1;stroke:none;stroke-width:1;stroke-linecap:round;stroke-linejoin:round;stroke-miterlimit:4;stroke-dasharray:none;stroke-dashoffset:2.5;stroke-opacity:1"
     id="rect3347"
     width="1280"
     height="720"
     x="-34.28582"
     y="-1445.7142"
     ry="0"
     inkscape:export-filename="/home/yannick/Desktop/phaser3-matter-car-on-curved-terrain/src/assets/img/wholes.png"
     inkscape:export-xdpi="90"
     inkscape:export-ydpi="90" />
  <g
     id="g4161"
     transform="translate(278.58371,-1265.8054)"
     inkscape:export-filename="/home/yannick/Desktop/phaser3-matter-car-on-curved-terrain/src/assets/img/wholes.png"
     inkscape:export-xdpi="90"
     inkscape:export-ydpi="90">
    <circle
       r="50"
       cy="433.79077"
       cx="-209.28571"
       id="circle4153"
       style="opacity:1;fill:#6e563a;fill-opacity:1;stroke:none;stroke-width:1;stroke-linecap:round;stroke-linejoin:round;stroke-miterlimit:4;stroke-dasharray:none;stroke-dashoffset:2.5;stroke-opacity:1" />
    <path
       id="circle4158"
       d="M -209.28516,383.79102 A 50,50 0 0 0 -244.22852,398.03906 50,50 0 0 1 -224.4375,393.89258 50,50 0 0 1 -174.4375,443.89258 50,50 0 0 1 -189.49609,479.64453 50,50 0 0 0 -159.28516,433.79102 50,50 0 0 0 -209.28516,383.79102 Z"
       style="opacity:1;fill:#57462a;fill-opacity:1;stroke:none;stroke-width:1;stroke-linecap:round;stroke-linejoin:round;stroke-miterlimit:4;stroke-dasharray:none;stroke-dashoffset:2.5;stroke-opacity:1"
       inkscape:connector-curvature="0" />
  </g>
  <g
     transform="matrix(0.84285714,0,0,0.84285714,457.83881,-1316.924)"
     id="g4165"
     inkscape:export-filename="/home/yannick/Desktop/phaser3-matter-car-on-curved-terrain/src/assets/img/wholes.png"
     inkscape:export-xdpi="90"
     inkscape:export-ydpi="90">
    <circle
       style="opacity:1;fill:#6e563a;fill-opacity:1;stroke:none;stroke-width:1;stroke-linecap:round;stroke-linejoin:round;stroke-miterlimit:4;stroke-dasharray:none;stroke-dashoffset:2.5;stroke-opacity:1"
       id="circle4167"
       cx="-209.28571"
       cy="433.79077"
       r="50" />
    <path
       inkscape:connector-curvature="0"
       style="opacity:1;fill:#57462a;fill-opacity:1;stroke:none;stroke-width:1;stroke-linecap:round;stroke-linejoin:round;stroke-miterlimit:4;stroke-dasharray:none;stroke-dashoffset:2.5;stroke-opacity:1"
       d="M -209.28516,383.79102 A 50,50 0 0 0 -244.22852,398.03906 50,50 0 0 1 -224.4375,393.89258 50,50 0 0 1 -174.4375,443.89258 50,50 0 0 1 -189.49609,479.64453 50,50 0 0 0 -159.28516,433.79102 50,50 0 0 0 -209.28516,383.79102 Z"
       id="path4169" />
  </g>
  <g
     id="g4171"
     transform="translate(351.44091,-1731.5197)"
     inkscape:export-filename="/home/yannick/Desktop/phaser3-matter-car-on-curved-terrain/src/assets/img/wholes.png"
     inkscape:export-xdpi="90"
     inkscape:export-ydpi="90">
    <circle
       r="50"
       cy="433.79077"
       cx="-209.28571"
       id="circle4173"
       style="opacity:1;fill:#6e563a;fill-opacity:1;stroke:none;stroke-width:1;stroke-linecap:round;stroke-linejoin:round;stroke-miterlimit:4;stroke-dasharray:none;stroke-dashoffset:2.5;stroke-opacity:1" />
    <path
       id="path4175"
       d="M -209.28516,383.79102 A 50,50 0 0 0 -244.22852,398.03906 50,50 0 0 1 -224.4375,393.89258 50,50 0 0 1 -174.4375,443.89258 50,50 0 0 1 -189.49609,479.64453 50,50 0 0 0 -159.28516,433.79102 50,50 0 0 0 -209.28516,383.79102 Z"
       style="opacity:1;fill:#57462a;fill-opacity:1;stroke:none;stroke-width:1;stroke-linecap:round;stroke-linejoin:round;stroke-miterlimit:4;stroke-dasharray:none;stroke-dashoffset:2.5;stroke-opacity:1"
       inkscape:connector-curvature="0" />
  </g>
  <g
     transform="translate(860.01231,-1758.6625)"
     id="g4177"
     inkscape:export-filename="/home/yannick/Desktop/phaser3-matter-car-on-curved-terrain/src/assets/img/wholes.png"
     inkscape:export-xdpi="90"
     inkscape:export-ydpi="90">
    <circle
       style="opacity:1;fill:#6e563a;fill-opacity:1;stroke:none;stroke-width:1;stroke-linecap:round;stroke-linejoin:round;stroke-miterlimit:4;stroke-dasharray:none;stroke-dashoffset:2.5;stroke-opacity:1"
       id="circle4179"
       cx="-209.28571"
       cy="433.79077"
       r="50" />
    <path
       inkscape:connector-curvature="0"
       style="opacity:1;fill:#57462a;fill-opacity:1;stroke:none;stroke-width:1;stroke-linecap:round;stroke-linejoin:round;stroke-miterlimit:4;stroke-dasharray:none;stroke-dashoffset:2.5;stroke-opacity:1"
       d="M -209.28516,383.79102 A 50,50 0 0 0 -244.22852,398.03906 50,50 0 0 1 -224.4375,393.89258 50,50 0 0 1 -174.4375,443.89258 50,50 0 0 1 -189.49609,479.64453 50,50 0 0 0 -159.28516,433.79102 50,50 0 0 0 -209.28516,383.79102 Z"
       id="path4181" />
  </g>
  <g
     id="g4183"
     transform="translate(742.86941,-1437.2339)"
     inkscape:export-filename="/home/yannick/Desktop/phaser3-matter-car-on-curved-terrain/src/assets/img/wholes.png"
     inkscape:export-xdpi="90"
     inkscape:export-ydpi="90">
    <circle
       r="50"
       cy="433.79077"
       cx="-209.28571"
       id="circle4185"
       style="opacity:1;fill:#6e563a;fill-opacity:1;stroke:none;stroke-width:1;stroke-linecap:round;stroke-linejoin:round;stroke-miterlimit:4;stroke-dasharray:none;stroke-dashoffset:2.5;stroke-opacity:1" />
    <path
       id="path4187"
       d="M -209.28516,383.79102 A 50,50 0 0 0 -244.22852,398.03906 50,50 0 0 1 -224.4375,393.89258 50,50 0 0 1 -174.4375,443.89258 50,50 0 0 1 -189.49609,479.64453 50,50 0 0 0 -159.28516,433.79102 50,50 0 0 0 -209.28516,383.79102 Z"
       style="opacity:1;fill:#57462a;fill-opacity:1;stroke:none;stroke-width:1;stroke-linecap:round;stroke-linejoin:round;stroke-miterlimit:4;stroke-dasharray:none;stroke-dashoffset:2.5;stroke-opacity:1"
       inkscape:connector-curvature="0" />
  </g>
  <g
     transform="translate(1145.7266,-1314.3768)"
     id="g4189"
     inkscape:export-filename="/home/yannick/Desktop/phaser3-matter-car-on-curved-terrain/src/assets/img/wholes.png"
     inkscape:export-xdpi="90"
     inkscape:export-ydpi="90">
    <circle
       style="opacity:1;fill:#6e563a;fill-opacity:1;stroke:none;stroke-width:1;stroke-linecap:round;stroke-linejoin:round;stroke-miterlimit:4;stroke-dasharray:none;stroke-dashoffset:2.5;stroke-opacity:1"
       id="circle4191"
       cx="-209.28571"
       cy="433.79077"
       r="50" />
    <path
       inkscape:connector-curvature="0"
       style="opacity:1;fill:#57462a;fill-opacity:1;stroke:none;stroke-width:1;stroke-linecap:round;stroke-linejoin:round;stroke-miterlimit:4;stroke-dasharray:none;stroke-dashoffset:2.5;stroke-opacity:1"
       d="M -209.28516,383.79102 A 50,50 0 0 0 -244.22852,398.03906 50,50 0 0 1 -224.4375,393.89258 50,50 0 0 1 -174.4375,443.89258 50,50 0 0 1 -189.49609,479.64453 50,50 0 0 0 -159.28516,433.79102 50,50 0 0 0 -209.28516,383.79102 Z"
       id="path4193" />
  </g>
  <g
     id="g4195"
     transform="translate(1178.5837,-1531.5197)"
     inkscape:export-filename="/home/yannick/Desktop/phaser3-matter-car-on-curved-terrain/src/assets/img/wholes.png"
     inkscape:export-xdpi="90"
     inkscape:export-ydpi="90">
    <circle
       r="50"
       cy="433.79077"
       cx="-209.28571"
       id="circle4197"
       style="opacity:1;fill:#6e563a;fill-opacity:1;stroke:none;stroke-width:1;stroke-linecap:round;stroke-linejoin:round;stroke-miterlimit:4;stroke-dasharray:none;stroke-dashoffset:2.5;stroke-opacity:1" />
    <path
       id="path4199"
       d="M -209.28516,383.79102 A 50,50 0 0 0 -244.22852,398.03906 50,50 0 0 1 -224.4375,393.89258 50,50 0 0 1 -174.4375,443.89258 50,50 0 0 1 -189.49609,479.64453 50,50 0 0 0 -159.28516,433.79102 50,50 0 0 0 -209.28516,383.79102 Z"
       style="opacity:1;fill:#57462a;fill-opacity:1;stroke:none;stroke-width:1;stroke-linecap:round;stroke-linejoin:round;stroke-miterlimit:4;stroke-dasharray:none;stroke-dashoffset:2.5;stroke-opacity:1"
       inkscape:connector-curvature="0" />
  </g>
  <g
     id="g4201"
     transform="matrix(0.84285714,0,0,0.84285714,324.98171,-1438.3525)"
     inkscape:export-filename="/home/yannick/Desktop/phaser3-matter-car-on-curved-terrain/src/assets/img/wholes.png"
     inkscape:export-xdpi="90"
     inkscape:export-ydpi="90">
    <circle
       r="50"
       cy="433.79077"
       cx="-209.28571"
       id="circle4203"
       style="opacity:1;fill:#6e563a;fill-opacity:1;stroke:none;stroke-width:1;stroke-linecap:round;stroke-linejoin:round;stroke-miterlimit:4;stroke-dasharray:none;stroke-dashoffset:2.5;stroke-opacity:1" />
    <path
       id="path4205"
       d="M -209.28516,383.79102 A 50,50 0 0 0 -244.22852,398.03906 50,50 0 0 1 -224.4375,393.89258 50,50 0 0 1 -174.4375,443.89258 50,50 0 0 1 -189.49609,479.64453 50,50 0 0 0 -159.28516,433.79102 50,50 0 0 0 -209.28516,383.79102 Z"
       style="opacity:1;fill:#57462a;fill-opacity:1;stroke:none;stroke-width:1;stroke-linecap:round;stroke-linejoin:round;stroke-miterlimit:4;stroke-dasharray:none;stroke-dashoffset:2.5;stroke-opacity:1"
       inkscape:connector-curvature="0" />
  </g>
  <g
     transform="matrix(0.84285714,0,0,0.84285714,556.41021,-1561.2097)"
     id="g4207"
     inkscape:export-filename="/home/yannick/Desktop/phaser3-matter-car-on-curved-terrain/src/assets/img/wholes.png"
     inkscape:export-xdpi="90"
     inkscape:export-ydpi="90">
    <circle
       style="opacity:1;fill:#6e563a;fill-opacity:1;stroke:none;stroke-width:1;stroke-linecap:round;stroke-linejoin:round;stroke-miterlimit:4;stroke-dasharray:none;stroke-dashoffset:2.5;stroke-opacity:1"
       id="circle4209"
       cx="-209.28571"
       cy="433.79077"
       r="50" />
    <path
       inkscape:connector-curvature="0"
       style="opacity:1;fill:#57462a;fill-opacity:1;stroke:none;stroke-width:1;stroke-linecap:round;stroke-linejoin:round;stroke-miterlimit:4;stroke-dasharray:none;stroke-dashoffset:2.5;stroke-opacity:1"
       d="M -209.28516,383.79102 A 50,50 0 0 0 -244.22852,398.03906 50,50 0 0 1 -224.4375,393.89258 50,50 0 0 1 -174.4375,443.89258 50,50 0 0 1 -189.49609,479.64453 50,50 0 0 0 -159.28516,433.79102 50,50 0 0 0 -209.28516,383.79102 Z"
       id="path4211" />
  </g>
  <g
     id="g4213"
     transform="matrix(0.84285714,0,0,0.84285714,900.69591,-1511.2097)"
     inkscape:export-filename="/home/yannick/Desktop/phaser3-matter-car-on-curved-terrain/src/assets/img/wholes.png"
     inkscape:export-xdpi="90"
     inkscape:export-ydpi="90">
    <circle
       r="50"
       cy="433.79077"
       cx="-209.28571"
       id="circle4215"
       style="opacity:1;fill:#6e563a;fill-opacity:1;stroke:none;stroke-width:1;stroke-linecap:round;stroke-linejoin:round;stroke-miterlimit:4;stroke-dasharray:none;stroke-dashoffset:2.5;stroke-opacity:1" />
    <path
       id="path4217"
       d="M -209.28516,383.79102 A 50,50 0 0 0 -244.22852,398.03906 50,50 0 0 1 -224.4375,393.89258 50,50 0 0 1 -174.4375,443.89258 50,50 0 0 1 -189.49609,479.64453 50,50 0 0 0 -159.28516,433.79102 50,50 0 0 0 -209.28516,383.79102 Z"
       style="opacity:1;fill:#57462a;fill-opacity:1;stroke:none;stroke-width:1;stroke-linecap:round;stroke-linejoin:round;stroke-miterlimit:4;stroke-dasharray:none;stroke-dashoffset:2.5;stroke-opacity:1"
       inkscape:connector-curvature="0" />
  </g>
  <g
     transform="matrix(0.84285714,0,0,0.84285714,1224.9817,-1725.4954)"
     id="g4219"
     inkscape:export-filename="/home/yannick/Desktop/phaser3-matter-car-on-curved-terrain/src/assets/img/wholes.png"
     inkscape:export-xdpi="90"
     inkscape:export-ydpi="90">
    <circle
       style="opacity:1;fill:#6e563a;fill-opacity:1;stroke:none;stroke-width:1;stroke-linecap:round;stroke-linejoin:round;stroke-miterlimit:4;stroke-dasharray:none;stroke-dashoffset:2.5;stroke-opacity:1"
       id="circle4221"
       cx="-209.28571"
       cy="433.79077"
       r="50" />
    <path
       inkscape:connector-curvature="0"
       style="opacity:1;fill:#57462a;fill-opacity:1;stroke:none;stroke-width:1;stroke-linecap:round;stroke-linejoin:round;stroke-miterlimit:4;stroke-dasharray:none;stroke-dashoffset:2.5;stroke-opacity:1"
       d="M -209.28516,383.79102 A 50,50 0 0 0 -244.22852,398.03906 50,50 0 0 1 -224.4375,393.89258 50,50 0 0 1 -174.4375,443.89258 50,50 0 0 1 -189.49609,479.64453 50,50 0 0 0 -159.28516,433.79102 50,50 0 0 0 -209.28516,383.79102 Z"
       id="path4223" />
  </g>
  <g
     id="g4225"
     transform="matrix(0.70000078,0,0,0.70000078,866.51251,-1163.5257)"
     inkscape:export-filename="/home/yannick/Desktop/phaser3-matter-car-on-curved-terrain/src/assets/img/wholes.png"
     inkscape:export-xdpi="90"
     inkscape:export-ydpi="90">
    <circle
       r="50"
       cy="433.79077"
       cx="-209.28571"
       id="circle4227"
       style="opacity:1;fill:#6e563a;fill-opacity:1;stroke:none;stroke-width:1;stroke-linecap:round;stroke-linejoin:round;stroke-miterlimit:4;stroke-dasharray:none;stroke-dashoffset:2.5;stroke-opacity:1" />
    <path
       id="path4229"
       d="M -209.28516,383.79102 A 50,50 0 0 0 -244.22852,398.03906 50,50 0 0 1 -224.4375,393.89258 50,50 0 0 1 -174.4375,443.89258 50,50 0 0 1 -189.49609,479.64453 50,50 0 0 0 -159.28516,433.79102 50,50 0 0 0 -209.28516,383.79102 Z"
       style="opacity:1;fill:#57462a;fill-opacity:1;stroke:none;stroke-width:1;stroke-linecap:round;stroke-linejoin:round;stroke-miterlimit:4;stroke-dasharray:none;stroke-dashoffset:2.5;stroke-opacity:1"
       inkscape:connector-curvature="0" />
  </g>
  <g
     transform="matrix(0.70000078,0,0,0.70000078,1283.6554,-1132.0971)"
     id="g4231"
     inkscape:export-filename="/home/yannick/Desktop/phaser3-matter-car-on-curved-terrain/src/assets/img/wholes.png"
     inkscape:export-xdpi="90"
     inkscape:export-ydpi="90">
    <circle
       style="opacity:1;fill:#6e563a;fill-opacity:1;stroke:none;stroke-width:1;stroke-linecap:round;stroke-linejoin:round;stroke-miterlimit:4;stroke-dasharray:none;stroke-dashoffset:2.5;stroke-opacity:1"
       id="circle4233"
       cx="-209.28571"
       cy="433.79077"
       r="50" />
    <path
       inkscape:connector-curvature="0"
       style="opacity:1;fill:#57462a;fill-opacity:1;stroke:none;stroke-width:1;stroke-linecap:round;stroke-linejoin:round;stroke-miterlimit:4;stroke-dasharray:none;stroke-dashoffset:2.5;stroke-opacity:1"
       d="M -209.28516,383.79102 A 50,50 0 0 0 -244.22852,398.03906 50,50 0 0 1 -224.4375,393.89258 50,50 0 0 1 -174.4375,443.89258 50,50 0 0 1 -189.49609,479.64453 50,50 0 0 0 -159.28516,433.79102 50,50 0 0 0 -209.28516,383.79102 Z"
       id="path4235" />
  </g>
  <g
     id="g4237"
     transform="matrix(0.70000078,0,0,0.70000078,1080.7982,-1556.3828)"
     inkscape:export-filename="/home/yannick/Desktop/phaser3-matter-car-on-curved-terrain/src/assets/img/wholes.png"
     inkscape:export-xdpi="90"
     inkscape:export-ydpi="90">
    <circle
       r="50"
       cy="433.79077"
       cx="-209.28571"
       id="circle4239"
       style="opacity:1;fill:#6e563a;fill-opacity:1;stroke:none;stroke-width:1;stroke-linecap:round;stroke-linejoin:round;stroke-miterlimit:4;stroke-dasharray:none;stroke-dashoffset:2.5;stroke-opacity:1" />
    <path
       id="path4241"
       d="M -209.28516,383.79102 A 50,50 0 0 0 -244.22852,398.03906 50,50 0 0 1 -224.4375,393.89258 50,50 0 0 1 -174.4375,443.89258 50,50 0 0 1 -189.49609,479.64453 50,50 0 0 0 -159.28516,433.79102 50,50 0 0 0 -209.28516,383.79102 Z"
       style="opacity:1;fill:#57462a;fill-opacity:1;stroke:none;stroke-width:1;stroke-linecap:round;stroke-linejoin:round;stroke-miterlimit:4;stroke-dasharray:none;stroke-dashoffset:2.5;stroke-opacity:1"
       inkscape:connector-curvature="0" />
  </g>
  <g
     transform="matrix(0.70000078,0,0,0.70000078,1270.7982,-1512.0971)"
     id="g4243"
     inkscape:export-filename="/home/yannick/Desktop/phaser3-matter-car-on-curved-terrain/src/assets/img/wholes.png"
     inkscape:export-xdpi="90"
     inkscape:export-ydpi="90">
    <circle
       style="opacity:1;fill:#6e563a;fill-opacity:1;stroke:none;stroke-width:1;stroke-linecap:round;stroke-linejoin:round;stroke-miterlimit:4;stroke-dasharray:none;stroke-dashoffset:2.5;stroke-opacity:1"
       id="circle4245"
       cx="-209.28571"
       cy="433.79077"
       r="50" />
    <path
       inkscape:connector-curvature="0"
       style="opacity:1;fill:#57462a;fill-opacity:1;stroke:none;stroke-width:1;stroke-linecap:round;stroke-linejoin:round;stroke-miterlimit:4;stroke-dasharray:none;stroke-dashoffset:2.5;stroke-opacity:1"
       d="M -209.28516,383.79102 A 50,50 0 0 0 -244.22852,398.03906 50,50 0 0 1 -224.4375,393.89258 50,50 0 0 1 -174.4375,443.89258 50,50 0 0 1 -189.49609,479.64453 50,50 0 0 0 -159.28516,433.79102 50,50 0 0 0 -209.28516,383.79102 Z"
       id="path4247" />
  </g>
  <g
     id="g4249"
     transform="matrix(0.70000078,0,0,0.70000078,492.22681,-1649.24)"
     inkscape:export-filename="/home/yannick/Desktop/phaser3-matter-car-on-curved-terrain/src/assets/img/wholes.png"
     inkscape:export-xdpi="90"
     inkscape:export-ydpi="90">
    <circle
       r="50"
       cy="433.79077"
       cx="-209.28571"
       id="circle4251"
       style="opacity:1;fill:#6e563a;fill-opacity:1;stroke:none;stroke-width:1;stroke-linecap:round;stroke-linejoin:round;stroke-miterlimit:4;stroke-dasharray:none;stroke-dashoffset:2.5;stroke-opacity:1" />
    <path
       id="path4253"
       d="M -209.28516,383.79102 A 50,50 0 0 0 -244.22852,398.03906 50,50 0 0 1 -224.4375,393.89258 50,50 0 0 1 -174.4375,443.89258 50,50 0 0 1 -189.49609,479.64453 50,50 0 0 0 -159.28516,433.79102 50,50 0 0 0 -209.28516,383.79102 Z"
       style="opacity:1;fill:#57462a;fill-opacity:1;stroke:none;stroke-width:1;stroke-linecap:round;stroke-linejoin:round;stroke-miterlimit:4;stroke-dasharray:none;stroke-dashoffset:2.5;stroke-opacity:1"
       inkscape:connector-curvature="0" />
  </g>
  <g
     transform="matrix(0.70000078,0,0,0.70000078,546.51251,-1173.5257)"
     id="g4255"
     inkscape:export-filename="/home/yannick/Desktop/phaser3-matter-car-on-curved-terrain/src/assets/img/wholes.png"
     inkscape:export-xdpi="90"
     inkscape:export-ydpi="90">
    <circle
       style="opacity:1;fill:#6e563a;fill-opacity:1;stroke:none;stroke-width:1;stroke-linecap:round;stroke-linejoin:round;stroke-miterlimit:4;stroke-dasharray:none;stroke-dashoffset:2.5;stroke-opacity:1"
       id="circle4257"
       cx="-209.28571"
       cy="433.79077"
       r="50" />
    <path
       inkscape:connector-curvature="0"
       style="opacity:1;fill:#57462a;fill-opacity:1;stroke:none;stroke-width:1;stroke-linecap:round;stroke-linejoin:round;stroke-miterlimit:4;stroke-dasharray:none;stroke-dashoffset:2.5;stroke-opacity:1"
       d="M -209.28516,383.79102 A 50,50 0 0 0 -244.22852,398.03906 50,50 0 0 1 -224.4375,393.89258 50,50 0 0 1 -174.4375,443.89258 50,50 0 0 1 -189.49609,479.64453 50,50 0 0 0 -159.28516,433.79102 50,50 0 0 0 -209.28516,383.79102 Z"
       id="path4259" />
  </g>
  <g
     transform="matrix(0.70000078,0,0,0.70000078,182.22681,-1472.0971)"
     id="g4261"
     inkscape:export-filename="/home/yannick/Desktop/phaser3-matter-car-on-curved-terrain/src/assets/img/wholes.png"
     inkscape:export-xdpi="90"
     inkscape:export-ydpi="90">
    <circle
       style="opacity:1;fill:#6e563a;fill-opacity:1;stroke:none;stroke-width:1;stroke-linecap:round;stroke-linejoin:round;stroke-miterlimit:4;stroke-dasharray:none;stroke-dashoffset:2.5;stroke-opacity:1"
       id="circle4263"
       cx="-209.28571"
       cy="433.79077"
       r="50" />
    <path
       inkscape:connector-curvature="0"
       style="opacity:1;fill:#57462a;fill-opacity:1;stroke:none;stroke-width:1;stroke-linecap:round;stroke-linejoin:round;stroke-miterlimit:4;stroke-dasharray:none;stroke-dashoffset:2.5;stroke-opacity:1"
       d="M -209.28516,383.79102 A 50,50 0 0 0 -244.22852,398.03906 50,50 0 0 1 -224.4375,393.89258 50,50 0 0 1 -174.4375,443.89258 50,50 0 0 1 -189.49609,479.64453 50,50 0 0 0 -159.28516,433.79102 50,50 0 0 0 -209.28516,383.79102 Z"
       id="path4265" />
  </g>
  <path
     style="fill:#adea53;fill-opacity:1;fill-rule:evenodd;stroke:#81c919;stroke-width:1px;stroke-linecap:round;stroke-linejoin:round;stroke-opacity:1"
     d="M 580.80661,-253.55578 C 579.58821,-257.50487 571.62971,-260.10458 571.62971,-260.10458 571.62971,-260.10458 578.89661,-260.04584 582.92421,-258.5816 588.63301,-256.5062 576.14741,-272.44066 576.14741,-272.44066 576.14741,-272.44066 586.75131,-267.01177 591.67771,-260.71378 596.60391,-254.41578 593.23061,-275.02973 593.23061,-275.02973 593.23061,-275.02973 600.69178,-262.06387 600.71331,-259.34308 604.76268,-262.74787 619.20841,-262.23675 619.20841,-262.23675 619.20841,-262.23675 602.75058,-256.12645 607.12468,-254.63256 612.92715,-253.13868 616.80821,-246.39782 616.80821,-246.39782 616.80821,-246.39782 603.17424,-251.71037 601.62061,-249.8167 601.31699,-247.47661 603.53711,-238.02145 603.53711,-238.02145 L 594.78361,-250.20524 C 591.43515,-252.09331 590.84588,-251.65951 588.40122,-251.20832 581.91235,-249.18671 576.71231,-241.2197 576.71231,-241.2197 576.71231,-241.2197 574.11871,-246.10385 580.80661,-253.55578 Z"
     id="path4330"
     inkscape:connector-curvature="0"
     sodipodi:nodetypes="ccsczccccccccccc"
     inkscape:export-filename="/home/yannick/Desktop/phaser3-matter-car-on-curved-terrain/src/assets/img/grass.png"
     inkscape:export-xdpi="90"
     inkscape:export-ydpi="90" />
</svg>
